<!--?xml version="1.0" standalone="no"?-->
              <svg id="sw-js-blob-svg" viewBox="0 0 100 100" xmlns="http://www.w3.org/2000/svg" version="1.1">
                    <defs> 
                        <linearGradient id="sw-gradient" x1="0" x2="1" y1="1" y2="0">
                            <stop id="stop1" stop-color="rgba(111.147, 0, 226.611, 1)" offset="0%"></stop>
                            <stop id="stop2" stop-color="rgba(26.254, 0, 0, 1)" offset="100%"></stop>
                        </linearGradient>
                    </defs>
                <path fill="url(#sw-gradient)" d="M17.8,-25.3C21.5,-18,21.9,-11,24.8,-3.1C27.7,4.8,33.1,13.5,31.5,19.9C29.9,26.4,21.2,30.5,12.6,32.8C4,35.1,-4.6,35.6,-10.3,31.9C-16,28.2,-18.8,20.4,-21.4,13.5C-23.9,6.7,-26.2,0.8,-26.5,-5.9C-26.8,-12.7,-25.2,-20.4,-20.4,-27.5C-15.7,-34.6,-7.9,-41.2,-0.4,-40.7C7,-40.2,14,-32.6,17.8,-25.3Z" width="100%" height="100%" transform="translate(50 50)" stroke-width="0" style="transition: all 0.3s ease 0s;"></path>
              </svg>